<svg xmlns="http://www.w3.org/2000/svg" width="16" height="16" viewBox="0 0 16 16">
  <!-- 地球背景 -->
  <circle cx="8" cy="8" r="7" fill="#4A90E2" stroke="#2C5F8D" stroke-width="1"/>
  
  <!-- 大陆轮廓简化版 -->
  <path d="M 5 4 Q 6 3 7 4 L 8 5 L 9 4 Q 10 3 11 4 L 12 5 Q 13 6 12 7 L 11 8 L 12 9 Q 13 10 12 11 L 11 12 Q 10 13 9 12 L 8 11 L 7 12 Q 6 13 5 12 L 4 11 Q 3 10 4 9 L 5 8 L 4 7 Q 3 6 4 5 Z" 
        fill="#7CB342" opacity="0.8"/>
  
  <!-- 翻译符号 - A 文 → B 文 -->
  <text x="8" y="10" font-family="Arial" font-size="5" fill="white" text-anchor="middle" font-weight="bold">A</text>
  
  <!-- 箭头 -->
  <path d="M 9.5 9 L 11.5 9 L 10.5 10.5" stroke="white" stroke-width="0.8" fill="none" transform="translate(0, -1)"/>
</svg>
